<svg class="justify-self-center w-[70px] lg:w-[95px]" viewBox="0 0 83 78" fill="none" xmlns="http://www.w3.org/2000/svg"><path fill-rule="evenodd" clip-rule="evenodd" d="M41.6109 4.86165C41.0842 2.95172 40.3819 1.21541 40.0308 0C39.6796 1.7363 39.1529 3.47261 38.6262 5.03528C24.2291 6.42433 12.8167 18.2312 12.6411 32.9898C12.6411 35.0733 12.8167 36.9833 13.1679 38.8932C12.6411 39.2405 11.9388 39.7614 11.4121 40.1086C23.1756 47.4011 32.8322 48.0956 38.6262 46.7066C45.6491 34.8997 45.298 21.7038 43.5423 12.675C43.3667 11.6332 43.0155 10.5915 42.84 9.37604C55.8325 10.0706 66.0158 20.8357 65.8402 33.6843C65.8402 37.8514 64.7868 41.6713 62.8555 44.9703C62.8555 44.9703 62.3287 46.0121 61.6264 46.8802C55.8325 44.2758 51.2675 45.4912 45.8247 47.2275C38.4506 49.4847 29.6719 52.0891 15.0992 44.7966C19.4885 54.6936 29.4963 61.6388 41.0842 61.8124C56.8859 61.9861 69.8784 49.4847 70.054 33.6843C70.2296 17.8839 57.4126 5.03528 41.6109 4.86165ZM17.0305 35.9415C16.8549 34.8997 16.8549 34.0316 16.8549 32.9898C17.0305 21.1829 25.6336 11.4596 36.8704 9.54967C32.1299 21.0093 24.5802 30.0381 17.0305 35.9415ZM44.9468 44.9703C49.5118 43.5812 54.0767 42.3658 59.1684 43.7549C57.5882 35.0733 54.0767 24.8292 46.3514 16.6685C47.5805 27.6072 46.0003 37.5042 41.6109 46.0121C42.84 45.4912 43.8934 45.3175 44.9468 44.9703Z" fill="white"></path><path fill-rule="evenodd" clip-rule="evenodd" d="M7.02298 48.6722C6.49626 48.8458 5.79396 48.6722 5.44281 47.8041L5.09166 46.9359C5.09166 46.9359 5.09166 46.9359 5.09166 46.7623L7.19855 46.0678C7.19855 46.0678 7.37413 46.0678 7.37413 46.2414L7.72528 47.1095C8.07643 47.8041 7.5497 48.4986 7.02298 48.6722ZM9.83217 46.2414L8.77873 43.6369C8.77873 43.2897 8.60315 43.2897 8.252 43.2897L0.351149 46.0678C0.175575 46.0678 0.175575 46.0678 0 46.2414C0 46.415 0 46.5887 0 46.5887L0.351149 47.6304C0.526724 47.9777 0.702298 47.9777 1.05345 47.9777L2.80919 47.4568C2.80919 47.4568 2.98477 47.4568 2.98477 47.6304L3.33592 48.4986C4.03821 50.4085 5.96953 51.4503 7.72528 50.7558C8.60315 50.4085 9.30545 49.8876 9.6566 49.1931C10.0077 48.325 10.1833 47.2832 9.83217 46.2414Z" fill="white"></path><path fill-rule="evenodd" clip-rule="evenodd" d="M59.346 63.3751L54.4299 66.1532C54.2544 66.3268 54.0788 66.6741 54.2544 66.8477L54.7811 67.7158C54.9567 67.8895 55.3078 68.0631 55.4834 67.8895L56.888 67.195C56.888 67.195 56.888 67.195 57.0636 67.195C57.0636 67.195 57.0636 67.195 57.2391 67.195L60.3995 72.9248C60.5751 73.0984 60.9262 73.272 61.1018 73.0984L62.1552 72.5775C62.3308 72.5775 62.3308 72.4039 62.3308 72.2302C62.3308 72.0566 62.3308 71.883 62.3308 71.883L59.1705 66.1532V65.9795L60.575 65.285C60.7506 65.1114 60.9262 64.7641 60.7506 64.5905L60.2239 63.7223C60.0483 63.2015 59.6972 63.2015 59.346 63.3751Z" fill="white"></path><path fill-rule="evenodd" clip-rule="evenodd" d="M15.1013 57.125L14.399 57.8195C14.2235 57.9931 14.2235 58.3404 14.399 58.514L15.4525 59.5558V59.7294L10.8875 64.4174C10.712 64.5911 10.712 64.9383 10.8875 65.112L11.7654 65.9801C11.941 66.1538 12.2921 66.1538 12.4677 65.9801L17.0326 61.2921C17.0326 61.2921 17.0326 61.2921 17.2082 61.2921C17.2082 61.2921 17.2082 61.2921 17.3838 61.2921L18.6128 62.5075C18.7884 62.6811 18.7884 62.6811 18.964 62.6811C19.1395 62.6811 19.3151 62.6811 19.3151 62.5075L20.0174 61.813C20.193 61.6394 20.193 61.6394 20.193 61.4657C20.193 61.2921 20.193 61.1185 20.0174 61.1185L15.8036 57.125C15.6281 56.9513 15.2769 56.9513 15.1013 57.125Z" fill="white"></path><path fill-rule="evenodd" clip-rule="evenodd" d="M24.7569 65.1114L24.4057 65.9796C24.2302 66.3268 24.4057 66.5005 24.7569 66.6741L26.1615 67.3686C26.1615 67.3686 26.1615 67.3686 26.1615 67.5422L23.5279 73.4457C23.3523 73.7929 23.5279 73.9666 23.879 74.1402L24.9325 74.6611C25.2836 74.8347 25.4592 74.6611 25.6348 74.3138L28.2684 68.4104C28.2684 68.4104 28.2684 68.4104 28.444 68.4104L30.0241 69.1049C30.1997 69.1049 30.3753 69.1049 30.3753 69.1049C30.5508 69.1049 30.5508 68.9313 30.7264 68.7576L31.0776 67.8895C31.0776 67.7159 31.0776 67.5422 31.0776 67.5422C31.0776 67.3686 30.902 67.3686 30.7264 67.195L25.4592 64.9378C25.2836 64.7642 24.9325 64.7641 24.7569 65.1114Z" fill="white"></path><path fill-rule="evenodd" clip-rule="evenodd" d="M72.8636 55.0408L71.459 57.1243C71.459 57.1243 71.459 57.1243 71.2834 57.1243C71.2834 57.1243 71.2834 57.1243 71.1078 57.1243L70.7567 56.7771C70.2299 56.4298 69.8788 55.5616 70.4055 54.8671C70.9322 54.1726 71.8101 54.1726 72.3368 54.5199L72.688 54.8671C72.8636 54.8671 72.8636 54.8671 72.8636 55.0408ZM78.4819 56.0825C78.4819 55.9089 78.3064 55.9089 78.3064 55.7353L73.5659 52.6099C72.8636 52.089 71.9857 51.9154 71.1078 52.089C70.2299 52.2627 69.3521 52.7836 68.8253 53.6517C68.2986 54.3462 68.123 55.0408 68.123 55.7353C68.123 55.9089 68.123 56.0825 68.123 56.4298C68.2986 57.2979 68.8253 57.9925 69.5276 58.5134L74.2682 61.6387C74.4437 61.6387 74.4437 61.8123 74.6193 61.6387C74.7949 61.6387 74.7949 61.4651 74.9705 61.4651L75.6728 60.4233C75.8483 60.2497 75.8483 59.9024 75.4972 59.7288L73.3903 58.3397V58.1661L74.7949 56.0825H74.9705L77.0774 57.4716C77.2529 57.4716 77.2529 57.6452 77.4285 57.4716C77.6041 57.4716 77.6041 57.2979 77.7796 57.2979L78.4819 56.2562V56.0825Z" fill="white"></path><path fill-rule="evenodd" clip-rule="evenodd" d="M51.443 71.0161L48.9849 71.7106C48.9849 71.7106 48.9849 71.7106 48.8093 71.7106C48.8093 71.7106 48.8093 71.7106 48.8093 71.537L48.6338 71.0161C48.4582 70.3216 48.8093 69.4534 49.6872 69.2798C50.5651 69.1061 51.2674 69.627 51.443 70.3216L51.6185 70.8424L51.443 71.0161ZM54.9545 75.1832L53.5499 69.8007C53.3743 68.9325 52.8476 68.238 51.9697 67.7171C51.0918 67.1962 50.2139 67.1962 49.1605 67.3698C48.1071 67.5435 47.4048 68.238 46.878 68.9325C46.3513 69.627 46.3513 70.6688 46.5269 71.3633L47.9315 76.7459C47.9315 77.0931 48.2826 77.2668 48.6338 77.0931L49.8628 76.7459C50.0384 76.7459 50.0384 76.5722 50.2139 76.5722C50.2139 76.3986 50.3895 76.225 50.2139 76.225L49.5116 73.7942C49.5116 73.7942 49.5116 73.6205 49.6872 73.6205L52.1453 72.926C52.1453 72.926 52.3208 72.926 52.3208 73.0996L53.0231 75.5305C53.0231 75.8777 53.3743 76.0514 53.7254 75.8777L54.9545 75.5305C54.9545 75.7041 54.9545 75.5305 54.9545 75.1832Z" fill="white"></path><path fill-rule="evenodd" clip-rule="evenodd" d="M42.0552 75.6533C41.8796 75.8269 41.704 76.0005 41.3529 76.0005H39.7727C39.7727 76.0005 39.7727 76.0005 39.5971 76.0005C39.5971 76.0005 39.5971 76.0005 39.5971 75.8269V74.2642C39.5971 74.2642 39.5971 74.0906 39.7727 74.0906H41.3529C42.0552 74.0906 42.2307 74.6115 42.2307 74.9587C42.2307 75.306 42.2307 75.4796 42.0552 75.6533ZM39.5971 70.618C39.7727 70.4444 39.7727 70.4444 39.5971 70.618L41.0017 70.4444C41.5284 70.4444 41.8796 70.9652 41.8796 71.3125C41.8796 71.4861 41.8796 72.007 41.0017 72.007H39.9483C39.9483 72.007 39.9483 72.007 39.7727 72.007C39.7727 72.007 39.7727 72.007 39.7727 71.8334L39.5971 70.618ZM43.1086 72.8752C43.6353 72.3543 43.8109 71.8334 43.8109 71.1389C43.8109 69.7498 42.5819 68.5344 41.1773 68.5344H38.017C37.8414 68.5344 37.4902 68.8817 37.4902 69.0553V77.2159C37.4902 77.3896 37.4902 77.5632 37.6658 77.5632C37.8414 77.7368 37.8414 77.7368 38.017 77.7368H41.5284C43.2842 77.7368 44.5132 76.6951 44.5132 75.1324C44.6888 74.2642 44.1621 73.3961 43.1086 72.8752Z" fill="white"></path><path fill-rule="evenodd" clip-rule="evenodd" d="M73.7399 43.2343L73.3888 44.4497C73.2132 44.7969 73.3888 44.9706 73.7399 45.1442L79.0071 46.8805C79.7094 47.0541 80.0606 47.7486 79.885 48.6168C79.7094 48.9641 79.5339 49.3113 79.1827 49.4849C78.8316 49.6586 78.4804 49.6586 78.1293 49.4849L72.862 47.7486C72.6865 47.7486 72.5109 47.7486 72.5109 47.7486C72.3353 47.7486 72.3353 47.9223 72.1597 48.0959L71.8086 49.3113C71.8086 49.4849 71.8086 49.6586 71.8086 49.6586C71.8086 49.8322 71.9842 49.8322 72.1597 50.0058L77.427 51.7421C78.3048 52.0894 79.1827 51.9158 79.885 51.5685C80.7629 51.2213 81.4652 50.3531 81.8163 49.3113C82.5186 47.4014 81.6408 45.4914 79.7094 44.7969L74.4422 43.0606C74.0911 42.7134 73.7399 42.887 73.7399 43.2343Z" fill="white"></path><path fill-rule="evenodd" clip-rule="evenodd" d="M21.7715 62.5068C21.5959 62.5068 21.5959 62.6805 21.4203 62.6805L16.8554 69.4521C16.8554 69.6257 16.6798 69.6257 16.8554 69.7993C16.8554 69.9729 17.031 69.9729 17.031 70.1466L18.0844 70.8411C18.26 70.8411 18.26 71.0147 18.4355 70.8411C18.6111 70.8411 18.6111 70.6675 18.7867 70.6675L23.3516 63.8959C23.5272 63.7222 23.5272 63.375 23.1761 63.2014L22.1226 62.5068C22.1226 62.5068 21.947 62.5068 21.7715 62.5068Z" fill="white"></path><path fill-rule="evenodd" clip-rule="evenodd" d="M65.4887 58.34L61.8016 61.639C61.626 61.8126 61.626 62.1599 61.8016 62.3335L67.42 68.4106C67.5956 68.5842 67.9467 68.5842 68.1223 68.4106L71.8094 65.1116C71.9849 64.938 71.9849 64.5907 71.8094 64.4171L71.1071 63.7226C70.9315 63.5489 70.9315 63.5489 70.7559 63.5489C70.5803 63.5489 70.4048 63.5489 70.4048 63.7226L67.7711 65.9797H67.5956L66.7177 64.7643V64.5907L68.4734 63.028C68.649 62.8544 68.649 62.5071 68.4734 62.3335L67.7711 61.639C67.5956 61.4654 67.2444 61.4654 67.0688 61.639L65.3131 63.2017C65.3131 63.2017 65.3131 63.2017 65.1375 63.2017C65.1375 63.2017 65.1375 63.2017 64.9619 63.2017L64.2596 62.3335C64.2596 62.3335 64.2596 62.3335 64.2596 62.1599C64.2596 62.1599 64.2596 62.1599 64.2596 61.9863L66.7177 59.7291C66.8933 59.5554 66.8933 59.5554 66.8933 59.3818C66.8933 59.2082 66.8933 59.0345 66.7177 59.0345L66.0154 58.34C65.8398 58.1664 65.8398 58.1664 65.6642 58.1664L65.4887 58.34Z" fill="white"></path><path fill-rule="evenodd" clip-rule="evenodd" d="M11.0603 51.0479L4.03736 55.3886C3.86179 55.5623 3.68621 55.9095 3.86179 56.0832L6.49541 60.2503C6.49541 60.4239 6.67098 60.4239 6.84655 60.4239C7.02213 60.4239 7.1977 60.4239 7.1977 60.4239L8.07558 59.903C8.25115 59.903 8.25115 59.7294 8.25115 59.5558C8.25115 59.3821 8.25115 59.2085 8.25115 59.2085L6.49541 56.4304V56.2568L7.9 55.5623C7.9 55.5623 7.9 55.5623 8.07558 55.5623C8.07558 55.5623 8.07558 55.5623 8.25115 55.5623L9.48017 57.6458C9.65575 57.8195 10.0069 57.9931 10.1825 57.8195L10.8848 57.2986C11.0603 57.1249 11.2359 56.7777 11.0603 56.604L9.83132 54.5205C9.83132 54.5205 9.83132 54.5205 9.83132 54.3468C9.83132 54.3468 9.83132 54.3469 9.83132 54.1732L10.7092 53.6523C10.7092 53.6523 10.7092 53.6523 10.8848 53.6523C10.8848 53.6523 10.8848 53.6523 11.0603 53.6523L12.8161 56.4304C12.8161 56.604 12.9917 56.604 13.1672 56.604C13.3428 56.604 13.5184 56.604 13.5184 56.604L14.3963 56.0832C14.5718 55.9095 14.7474 55.5623 14.5718 55.3886L11.9382 51.2215C11.5871 51.0479 11.4115 50.8742 11.0603 51.0479Z" fill="white"></path><path fill-rule="evenodd" clip-rule="evenodd" d="M75.8453 41.6716C74.9675 41.498 74.4407 40.8035 74.6163 40.109C74.7919 39.2408 75.4942 38.7199 76.1965 38.8935C77.0744 39.0672 77.6011 39.7617 77.4255 40.4562C77.2499 41.3244 76.5476 41.8453 75.8453 41.6716ZM75.8453 42.0189C76.8988 42.1925 77.7767 41.498 77.9522 40.4562C78.1278 39.4144 77.4255 38.5463 76.3721 38.3727C75.3186 38.199 74.4407 38.8936 74.2652 39.9353C74.0896 40.9771 74.7919 42.0189 75.8453 42.0189Z" fill="white"></path><path fill-rule="evenodd" clip-rule="evenodd" d="M75.8505 40.1083C75.8505 40.1083 75.8505 40.282 75.8505 40.4556C75.675 40.4556 75.675 40.4556 75.4994 40.4556C75.4994 40.282 75.4994 40.1083 75.4994 40.1083C75.4994 39.9347 75.675 39.9347 75.675 39.9347C75.675 39.9347 75.8505 39.9347 75.8505 40.1083ZM76.904 39.5874C76.904 39.5874 76.3773 39.7611 76.2017 39.7611C76.2017 39.5874 76.0261 39.4138 75.675 39.4138C75.3238 39.4138 75.1482 39.5874 74.9727 39.9347V40.6292C74.9727 40.6292 74.9727 40.8029 75.1482 40.8029L76.7284 40.9765C76.7284 40.9765 76.904 40.9765 76.904 40.8029V40.6292C76.904 40.6292 76.904 40.4556 76.7284 40.4556C76.7284 40.4556 76.3773 40.4556 76.2017 40.4556C76.2017 40.282 76.2017 40.282 76.2017 40.282C76.3773 40.282 76.904 40.1083 76.904 40.1083C76.904 40.1083 76.904 40.1083 77.0796 39.9347V39.7611C77.0796 39.7611 77.0795 39.7611 76.904 39.5874Z" fill="white"></path></svg>