<svg xmlns="http://www.w3.org/2000/svg" fill="none" viewBox="0 0 80 28"><path stroke-width="0.00530031" stroke="white" fill="white" d="M12.4816 1C12.6696 1.08151 12.7886 1.25035 12.939 1.38426C13.1833 1.58222 13.365 1.84422 13.6031 2.04799C13.8975 2.30999 14.0855 2.64185 14.3298 2.93879C14.7558 3.53847 15.1317 4.17891 15.3259 4.87757C15.5263 5.35499 15.5577 5.87316 15.5451 6.38551C15.5577 6.85129 15.4198 7.31124 15.1943 7.73044C14.8059 8.36506 14.1043 8.79008 13.3712 9.01714C12.4566 9.22092 11.448 9.25585 10.5646 8.89487C10.2451 8.73185 9.88179 8.62123 9.62494 8.36506C9.02979 7.91093 8.68523 7.17151 8.798 6.45538C8.97341 5.18032 9.79408 4.08575 10.6711 3.14256C10.7526 3.28229 10.6836 3.44531 10.7401 3.59087C10.8152 3.89944 10.9343 4.22549 11.1848 4.44673C11.4918 4.18473 11.8176 3.92273 12.0808 3.61998C12.3188 3.29394 12.513 2.93296 12.5944 2.5487C12.6133 2.05964 12.6634 1.54728 12.4628 1.08151L12.4816 1ZM1.00471 6.81636C2.47065 6.828 3.94285 6.80471 5.40885 6.828C5.40885 8.18457 5.42132 9.54114 5.40253 10.8977C6.44253 10.9152 7.48241 10.9035 8.52861 10.9035C8.54114 11.0083 8.54741 11.1131 8.54741 11.2179C8.53488 12.3358 8.55367 13.4478 8.53488 14.5657C7.48867 14.5773 6.44873 14.5657 5.40253 14.5715C5.42132 16.5801 5.39626 18.583 5.41506 20.5916C5.45265 20.7663 5.4777 20.941 5.47144 21.1214C5.45258 21.2845 5.55908 21.4184 5.59673 21.5698C5.67817 21.9191 5.88491 22.2335 6.12291 22.5072C6.47379 22.8332 6.92479 23.0603 7.40717 23.1592C7.8457 23.2233 8.28423 23.2582 8.72908 23.2291C8.75408 23.2989 8.76667 23.3688 8.76667 23.4445C8.76041 24.4925 8.76041 25.5405 8.76667 26.5827C8.76667 26.7282 8.73535 26.8738 8.71029 27.0134C8.07755 27.0134 7.44488 27.0542 6.81209 27.0134C6.4362 26.9377 6.03533 26.9727 5.67191 26.8213C4.66329 26.6001 3.69853 26.1343 2.97809 25.4298C1.91935 24.4808 1.34927 23.1417 1.11747 21.8143C1.05482 21.6687 1.09241 21.4999 1.06729 21.3427C0.979648 21.0225 1.01717 20.6847 1.00464 20.3587C0.998442 15.8466 0.998442 11.3285 1.00471 6.81636ZM22.4049 10.5891C22.668 10.5251 22.9499 10.5717 23.213 10.5193C23.7643 10.4552 24.3093 10.5367 24.8544 10.5542C25.2365 10.5484 25.6061 10.6532 25.982 10.723C27.379 11.0374 28.7009 11.7303 29.6594 12.7433C29.8285 13.0053 30.0854 13.1975 30.2482 13.4653C30.6554 14.065 30.9249 14.7345 31.1566 15.4099C31.3007 15.9048 31.3759 16.4171 31.4448 16.9237C31.4762 18.0473 31.4574 19.1768 31.4636 20.3005C31.4574 22.5421 31.4699 24.7836 31.4574 27.0251C29.9914 27.0077 28.5317 27.0193 27.0721 27.0135C27.0595 27.0077 27.0282 26.9844 27.0157 26.9727C27.0094 23.8346 27.0157 20.6964 27.0157 17.5641C27.022 17.1798 26.9468 16.8072 26.8591 16.4404C26.7025 16.0678 26.502 15.7126 26.2263 15.4099C26.0634 15.2294 25.8379 15.113 25.6562 14.9558C25.3743 14.7811 25.0422 14.6996 24.7228 14.6181C24.5537 14.6064 24.3845 14.6181 24.2279 14.5657C23.5576 14.5249 22.8747 14.5773 22.2482 14.816C21.7909 15.0198 21.3649 15.2993 21.0642 15.6894C20.5693 16.2366 20.4064 16.9819 20.419 17.6805C20.419 20.7896 20.4252 23.9044 20.419 27.0135C18.9404 27.0251 17.462 27.0077 15.9835 27.0251C15.9585 24.0267 15.9835 21.0225 15.971 18.024C15.9773 17.6397 15.9648 17.2555 15.9961 16.8712C16.0775 16.6791 16.0211 16.4695 16.0837 16.2832C16.1965 15.5729 16.4847 14.8975 16.8042 14.2512C17.1174 13.6865 17.4933 13.145 17.9819 12.6967C18.3641 12.3357 18.7587 11.9573 19.2412 11.7069C20.1747 11.1015 21.2773 10.7347 22.4049 10.5891ZM74.9031 10.5542C75.4481 10.5426 75.9869 10.4436 76.532 10.5251C76.8263 10.56 77.1271 10.5542 77.4215 10.5658C77.4779 11.0724 77.434 11.5847 77.4465 12.0912V14.129C77.4465 14.2571 77.4653 14.391 77.409 14.5133C77.2648 14.4144 77.0707 14.4492 76.9078 14.4085C76.2437 14.3561 75.5609 14.3852 74.9344 14.6181C74.1889 14.8568 73.5373 15.3634 73.174 16.0213C73.0675 16.1435 73.0675 16.3182 72.9484 16.4347C72.7542 17.0867 72.7417 17.7679 72.7542 18.4375C72.7479 21.302 72.773 24.1607 72.7417 27.0252C71.282 27.0077 69.8161 27.0252 68.3501 27.0136C68.3375 27.0019 68.3187 26.9786 68.3062 26.967V17.6224C68.2874 17.2323 68.3814 16.8538 68.3752 16.4696C68.4754 16.2833 68.4504 16.0679 68.513 15.8757C68.8263 14.4027 69.6595 13.0112 70.9249 12.0622C71.1692 11.806 71.5201 11.6838 71.8083 11.48C72.7418 10.9501 73.8256 10.6939 74.9031 10.5542ZM9.96949 10.8977C11.448 10.921 12.9264 10.8919 14.4049 10.9093C14.4049 16.2366 14.3986 21.5581 14.4049 26.8796C14.4049 26.932 14.4049 27.0368 14.3172 27.0193H9.98209C9.94444 26.1402 9.97576 25.2552 9.96323 24.376C9.96949 19.8871 9.96323 15.3924 9.96949 10.8977ZM56.3596 21.7037C56.7355 21.5698 57.0989 21.3951 57.4809 21.2729C58.0322 21.0749 58.571 20.8362 59.1223 20.6383C60.2625 20.1493 61.4402 19.7417 62.5929 19.2817C62.8685 19.142 63.1818 19.0779 63.4511 18.9265C63.7581 18.8159 64.0651 18.7169 64.3658 18.5888C64.629 18.4432 64.9297 18.385 65.1991 18.257C65.5561 18.123 65.9007 17.9717 66.2641 17.8494C66.6337 17.6573 67.0471 17.5642 67.4168 17.3778C67.517 17.3137 67.6798 17.3312 67.7425 17.2206C67.636 17.0809 67.6923 16.9062 67.636 16.7548C67.5545 16.4812 67.4731 16.2134 67.4042 15.9456C67.1223 15.1363 66.7151 14.362 66.1638 13.6866C65.4935 12.7841 64.5726 12.0564 63.5514 11.5207C62.8811 11.1423 62.1293 10.9269 61.3776 10.7406C60.914 10.6882 60.4692 10.5368 59.9993 10.5426C59.5733 10.4902 59.1348 10.4669 58.7151 10.5368C57.9696 10.5484 57.2554 10.7173 56.5475 10.9094C55.3133 11.3111 54.1418 11.9225 53.1959 12.7667C52.914 13.0112 52.6822 13.2965 52.4128 13.5469C51.9931 14.0476 51.6108 14.5774 51.3227 15.148C50.9155 16.0038 50.5271 16.9004 50.4833 17.8494C50.3455 18.3036 50.3893 18.781 50.383 19.2468C50.3705 19.5437 50.4206 19.8348 50.4833 20.1201C50.4645 20.4228 50.5898 20.7023 50.6336 20.9934C50.7401 21.6106 51.0346 22.1811 51.3039 22.7517C52.0432 24.1606 53.2083 25.3833 54.6681 26.1809C55.6266 26.7282 56.6916 27.1183 57.8067 27.2638C58.7151 27.3978 59.6485 27.421 60.5632 27.3105C60.8764 27.3337 61.1771 27.2056 61.4903 27.1882C62.8247 26.897 64.134 26.3731 65.1427 25.4939C65.4434 25.2727 65.7253 25.0107 65.9634 24.7311C66.3643 24.3527 66.6525 23.8928 66.9407 23.4387C67.2163 22.9554 67.4419 22.443 67.6048 21.9133C67.5171 21.8783 67.4169 21.89 67.3292 21.89C65.8632 21.8959 64.4036 21.8842 62.9376 21.89C62.7998 21.89 62.7998 22.0646 62.712 22.1345C62.4614 22.4722 62.1419 22.7575 61.8036 23.0253C61.315 23.3514 60.7386 23.5261 60.1686 23.6832C60.0182 23.7007 59.8741 23.6949 59.7363 23.7473C59.3855 23.7705 59.0284 23.759 58.6713 23.7531C58.2766 23.6833 57.8819 23.6018 57.4998 23.4853C56.911 23.2058 56.3346 22.8856 55.8898 22.4314C55.777 22.3034 55.5954 22.2044 55.5577 22.0355C55.658 21.9948 55.752 21.9307 55.8647 21.9133C56.0464 21.8842 56.1841 21.7502 56.3596 21.7037ZM54.5553 18.7576C54.4677 18.5539 54.5491 18.3152 54.5365 18.0997C54.6368 17.8027 54.6681 17.4884 54.7871 17.1914C55.0878 16.5335 55.4574 15.8873 55.9962 15.3691C56.2468 15.1769 56.4598 14.9441 56.748 14.7985C56.961 14.6937 57.1677 14.5773 57.387 14.4841C57.7942 14.3735 58.1888 14.1989 58.6149 14.1989C59.0033 14.1115 59.4043 14.1581 59.7989 14.1639C60.8326 14.2979 61.8726 14.7112 62.5428 15.4739C62.6118 15.6253 62.3799 15.637 62.286 15.6952C61.8788 15.9048 61.4214 16.0095 61.0142 16.225C60.8326 16.2541 60.6759 16.3589 60.5005 16.4113C59.2037 16.9353 57.8819 17.3952 56.5976 17.9425C55.9086 18.1929 55.2257 18.4607 54.5553 18.7576ZM49.8881 3.783C48.5162 3.77136 47.1442 3.783 45.7723 3.77718C45.672 3.78882 45.553 3.74807 45.4715 3.81793C45.484 6.55436 45.4715 9.2966 45.4778 12.033C45.4715 12.132 45.4966 12.231 45.4528 12.3241C45.3275 12.3067 45.2648 12.196 45.1709 12.132C44.5381 11.6255 43.8303 11.1946 43.0409 10.9443C42.5084 10.7521 41.9509 10.6532 41.387 10.56C40.748 10.5484 40.1028 10.5309 39.4574 10.5658C39.3885 10.5833 39.3259 10.6008 39.257 10.6066C37.8224 10.7929 36.4817 11.4159 35.3792 12.2717C34.7652 12.8074 34.1513 13.3663 33.719 14.0417C33.2116 14.7112 32.8858 15.4798 32.5726 16.2366C32.4285 16.7141 32.2844 17.1857 32.2217 17.6747C32.1027 18.4258 32.1528 19.1943 32.1653 19.9512C32.1967 20.1491 32.2656 20.3355 32.2718 20.5334C32.3846 21.1738 32.5851 21.8026 32.8607 22.4023C33.0924 22.9787 33.4683 23.5027 33.8129 24.0267C34.0572 24.3178 34.2953 24.6206 34.5897 24.8768C35.0282 25.2785 35.4604 25.7151 36.0117 25.9946C36.6633 26.4546 37.4338 26.7283 38.1856 26.996C38.4612 27.0426 38.7181 27.1882 39 27.194C39.2381 27.2114 39.4573 27.3162 39.6954 27.3045C39.8207 27.2929 39.9335 27.3744 40.065 27.3628C40.6727 27.3802 41.2866 27.3802 41.8943 27.3628C41.9945 27.3628 42.0948 27.322 42.2013 27.3162C42.6209 27.322 43.0093 27.1706 43.4165 27.1182C43.9491 26.9377 44.5192 26.8213 45.014 26.5535C45.747 26.2391 46.4111 25.7967 47.0062 25.2959C47.758 24.6904 48.3657 23.9336 48.8167 23.1068C49.0109 22.74 49.2302 22.3848 49.3555 21.9889C49.5936 21.4416 49.7 20.8594 49.7816 20.283C49.9193 19.7765 49.8755 19.2466 49.888 18.7227C49.8881 13.7447 49.8881 8.76679 49.8881 3.783ZM45.434 19.5495C45.3964 20.1667 45.1458 20.7547 44.8514 21.3078C44.3564 22.1753 43.5232 22.839 42.5773 23.2582C42.4331 23.3281 42.2452 23.3223 42.145 23.4503C41.9696 23.4503 41.7942 23.4562 41.625 23.5144C41.0862 23.5261 40.5287 23.5726 40.0025 23.4329C39.777 23.3339 39.5264 23.2932 39.3008 23.1826C39.0189 23.037 38.6994 22.938 38.4676 22.7168C38.0291 22.4315 37.6909 22.0414 37.3838 21.6397C37.1395 21.2496 36.8952 20.8479 36.7824 20.4054C36.6571 20.1725 36.6696 19.9105 36.6007 19.666C36.5819 19.043 36.5444 18.4026 36.701 17.797C36.77 17.6049 36.8138 17.4011 36.8889 17.209C37.0706 16.9004 37.1834 16.5569 37.4214 16.2775C37.5467 16.0329 37.766 15.8524 37.9415 15.6428C38.4113 15.1421 39.0566 14.8219 39.708 14.5716C39.9524 14.5192 40.1904 14.4028 40.4473 14.4028C40.9673 14.2804 41.506 14.3795 42.0198 14.4668C42.6964 14.6939 43.3667 15.0083 43.8929 15.4741C44.0871 15.6429 44.2311 15.8525 44.4254 16.0213C45.2272 17.0226 45.5968 18.3093 45.434 19.5495ZM74.8655 24.9757H76.5069C76.5132 25.0922 76.5132 25.2086 76.5069 25.3251C76.319 25.3483 76.131 25.3192 75.9493 25.3425C75.9243 25.8665 75.9493 26.3847 75.9369 26.9087C75.7677 26.897 75.5986 26.8971 75.4357 26.9029C75.4168 26.4894 75.4232 26.0702 75.4294 25.6569C75.4294 25.5463 75.4544 25.4182 75.3479 25.3425C75.185 25.3193 75.0222 25.3484 74.8593 25.3251C74.853 25.2086 74.853 25.0922 74.8655 24.9757ZM76.8076 24.9816C77.0394 24.9757 77.2712 24.964 77.5031 24.9931C77.4905 25.162 77.6408 25.2784 77.6847 25.4357C77.7473 25.6336 77.8413 25.8199 77.9039 26.0179C77.954 26.1052 78.0417 26.1809 78.0104 26.2915C78.1357 25.8374 78.3299 25.4066 78.5241 24.9816C78.7434 24.9757 78.9689 24.9699 79.1945 24.9816C79.2069 25.6045 79.1945 26.2391 79.1945 26.8621C79.0441 26.8738 78.8937 26.8738 78.7371 26.8621C78.7434 26.4255 78.7371 25.9888 78.7496 25.5579C78.6933 25.6045 78.6368 25.6453 78.593 25.7035C78.5115 26.0994 78.2923 26.4604 78.1858 26.8563C78.0605 26.8738 77.9415 26.8738 77.8162 26.8622C77.7786 26.6409 77.6094 26.4604 77.6094 26.2334C77.4403 26.0412 77.434 25.7676 77.3025 25.5522C77.2148 25.7094 77.2837 25.8956 77.2649 26.0645C77.2399 26.3382 77.2962 26.6176 77.2399 26.8913C77.0895 26.8913 76.9203 26.9379 76.8013 26.8389C76.8201 26.2217 76.8013 25.6045 76.8076 24.9816Z"></path></svg>