<svg xmlns="http://www.w3.org/2000/svg" fill="none" viewBox="0 0 256 144"><path fill="white" d="M125.893 3.05C126.263 4.65 127.283 8.92 127.673 10.51H127.683H128.193C128.5 9.26069 129.183 6.38151 129.651 4.40948C129.778 3.87171 129.89 3.4014 129.973 3.05C130.363 1.41 129.513 0 127.933 0C126.353 0 125.503 1.41 125.893 3.05ZM112.904 11.45C107.907 11.4527 102.641 13.5118 99.4235 16.34C89.6434 24.97 88.2734 43.2 99.2734 56.52C105.223 63.92 114.353 68.36 121.553 68.28V67.38C113.103 66.92 103.463 57.82 100.123 45.36C96.9834 33.66 100.003 22.24 105.783 17.01C108.063 15.06 110.923 13.69 114.583 13.97C120.243 14.39 121.023 18.43 120.923 20.11C120.683 23.81 116.863 26.39 113.423 25.25C112.373 28.28 114.423 31.46 117.793 31.46C120.253 31.46 125.133 29.03 125.533 22.68C125.953 16.1627 120.898 11.454 112.904 11.45ZM112.904 11.45L112.893 11.45H112.913L112.904 11.45ZM131.293 66.84C133.083 66.6 134.513 66.24 135.563 65.78C138.443 64.5 143.383 60.65 143.383 51.21C143.383 47.6 142.523 44.58 140.803 42.16C137.353 37.29 133.683 36.89 131.293 36.76V66.84ZM131.293 34.43C135.733 34.51 141.973 35.56 146.623 41.07H146.613C148.843 43.72 149.963 47.1 149.963 51.19C149.963 54.68 149.113 57.69 147.413 60.23C145.363 63.28 140.113 68 131.363 68.28L131.153 81.21C131.153 82.72 132.253 83.8 133.943 83.8V84.49C129.897 85.1644 128.044 87.023 126.051 89.0224C125.916 89.1577 125.78 89.2937 125.643 89.43C123.633 91.59 120.613 93.42 117.403 93.42C113.523 93.42 110.833 90.43 110.833 87.3C110.833 83.88 113.273 81.67 115.623 81.68C117.453 81.7 119.093 83.05 119.133 85.08C116.673 84.85 115.353 86.44 115.353 88.13C115.353 89.96 116.783 91.03 118.263 91.03C119.913 91.03 121.673 90.35 123.213 88.33C124.703 86.36 125.143 83.27 125.233 81.22V37.56C123.243 38.26 118.873 40.99 117.253 46.08C115.753 51.66 118.423 55.47 121.473 55.33C122.083 55.3 119.293 60.32 114.993 58.94L114.987 58.9382C114.756 58.8685 109.921 57.4136 110.623 50.49C111.333 43.5 117.983 34.19 131.293 34.43ZM75.2434 71.35C75.2434 75.8 78.7134 78.35 81.7534 78.35C84.5734 78.35 85.4734 76.13 85.4434 75.39C82.4434 75.86 79.6034 73.01 79.6034 69.42C79.6034 66.02 82.3334 63.11 86.1534 63.12C88.1835 63.12 90.4634 64.19 92.6134 67.01C95.5934 70.91 99.8634 75.65 106.443 77.5V76.97C104.718 76.0122 103.176 73.8957 101.477 71.5639C100.231 69.8545 98.9016 68.0293 97.3534 66.46C93.6934 62.75 90.0834 61.4 86.3334 61.4C81.6134 61.4 75.2534 64.65 75.2534 71.35H75.2434ZM81.7833 94.13C81.7833 94.13 77.9233 98.99 76.9434 100.3L77.2534 100.7C78.7434 100.03 84.3334 97.44 84.3334 97.44C86.9133 95.96 85.3634 94.01 85.3634 94.01C85.3634 94.01 83.8033 92 81.8134 94.08L81.7733 94.13H81.7833ZM166.153 117.77C164.854 119.94 163.203 121.46 161.214 122.34C160.363 122.72 158.663 123.09 157.714 123.1V96.37C158.323 96.41 159.083 96.49 159.673 96.63C162.513 97.31 164.313 98.97 165.833 101.11C167.354 103.25 168.113 106.31 168.113 109.49C168.113 112.4 167.464 115.6 166.153 117.77ZM170.964 100.55C168.993 98.21 166.484 96.59 163.464 95.59C162.403 95.24 160.573 94.88 158.594 94.75L158.358 94.7357C157.999 94.7135 157.752 94.6983 157.354 94.69H157.033H156.873H156.833C155.173 94.71 152.583 94.85 149.523 96.02C148.563 96.38 147.673 96.85 146.833 97.4C146.313 97.71 145.813 98.04 145.344 98.4C140.743 101.84 139.433 106.8 139.224 108.86C138.61 114.87 142.74 116.202 143.057 116.304L143.073 116.31C146.863 117.53 149.333 113.1 148.793 113.13C146.114 113.25 143.743 109.89 145.073 104.98C145.943 102.24 147.773 99.92 150.633 98.17C151.013 97.96 151.383 97.78 151.753 97.62V138.96C151.523 141.67 149.543 141.97 148.513 141.97V143.11H156.273H161.063V141.97C160.173 141.97 158.203 141.75 157.803 139.9C157.763 139.69 157.734 139.47 157.714 139.26V124.55C165.453 124.18 169.883 120.13 171.673 117.46C173.173 115.22 173.923 112.56 173.923 109.49C173.923 105.88 172.933 102.9 170.964 100.56V100.55ZM243.943 116.19C244.263 116.47 247.133 118.71 248.403 119.67L248.383 119.7C255.033 124.73 258.453 132.12 253.483 138.99C249.358 144.694 242.667 143.133 242.354 143.06L242.353 143.06C236.233 141.74 235.183 136.88 235.013 135.51C234.483 131.19 237.893 130.04 237.983 130.01C240.493 129.1 242.403 131.07 242.713 131.77C240.623 132.37 239.163 134.32 239.273 136.63C239.363 138.44 240.393 140.03 241.863 140.92C241.878 140.93 241.893 140.939 241.908 140.947C241.925 140.957 241.942 140.966 241.958 140.975L241.96 140.976C241.992 140.993 242.024 141.01 242.053 141.03C242.068 141.04 242.083 141.048 242.099 141.055C242.113 141.063 242.128 141.07 242.143 141.08C242.743 141.41 243.423 141.63 244.143 141.68C244.803 141.73 245.533 141.67 246.163 141.48C252.633 139.59 253.113 130.17 244.363 123.79C236.052 117.734 236.004 114.176 235.974 111.985L235.973 111.97C235.973 111.97 235.763 106.56 241.233 104.88C242.263 104.56 243.313 104.35 244.403 104.33C247.513 104.28 250.363 105.16 252.233 106.47C252.513 107.88 253.363 113.02 253.363 113.02H252.193C250.913 107.08 246.773 106.06 245.233 105.99H245.113H245.083H244.903C243.823 106.03 242.853 106.38 242.123 107.07C240.033 109.03 240.683 112.96 243.583 115.85C243.693 115.96 243.813 116.07 243.923 116.17C243.933 116.17 243.943 116.19 243.943 116.19ZM233.303 105V106.14H233.293C232.153 106.14 230.773 106.49 230.773 110.09V128.16V138.01C230.773 141.61 232.163 141.96 233.293 141.96V143.1H230.793H226.303H224.903H222.403V141.96C223.543 141.96 224.923 141.61 224.923 138.01V128.16V110.09C224.923 106.49 223.533 106.14 222.403 106.14V105H224.903H230.803H233.303ZM203.693 120.66H203.013V108.72C203.023 106.96 203.393 106.51 204.403 106.43C204.673 106.41 205.143 106.41 205.493 106.41C207.213 106.41 208.993 107.75 209.673 109.16C211.013 111.93 210.753 114.92 209.483 117.49C208.313 119.87 206.843 120.59 203.693 120.67V120.66ZM221.693 142.01L221.683 142.009L221.683 142L221.693 142.01ZM221.683 142.009C221.067 141.936 220.501 141.537 220.063 141.05C219.463 140.38 218.853 139.02 218.553 138.19C218.143 137.065 217.981 136.454 217.742 135.553L217.741 135.551C217.695 135.377 217.646 135.191 217.592 134.99C217.558 134.863 217.522 134.731 217.483 134.59C217.255 133.759 217.045 132.922 216.835 132.084C216.371 130.239 215.907 128.391 215.253 126.61C214.263 123.91 212.183 122.19 209.243 121.61C210.882 121.008 211.527 120.601 212.639 119.898L212.683 119.87C215.333 118.19 216.693 114.8 216.053 111.47C215.363 107.91 212.623 105.72 209.233 105.22C208.643 105.13 207.863 105.07 206.983 105.02H205.483H205.482C204.652 105.02 203.813 105.02 202.983 105.01H197.083H194.583V106.15C195.713 106.15 197.103 106.5 197.103 110.1V128.18V138.03C197.103 141.63 195.723 141.98 194.583 141.98V143.12H197.083H198.483H202.973H205.473V141.98C204.343 141.98 202.953 141.63 202.953 138.03C202.953 136.4 202.963 129.19 202.983 122.33H203.473H203.943C205.883 122.36 207.573 122.89 208.403 124.4C209.199 125.854 209.585 127.334 209.997 128.915L209.997 128.916C210.036 129.063 210.074 129.211 210.113 129.36C210.468 130.701 210.745 132.064 211.022 133.427L211.023 133.433C211.316 134.873 211.608 136.313 211.993 137.73C212.943 141.23 215.093 142.97 218.653 143.06C219.673 143.09 220.683 143.1 221.703 143.11L221.683 142.009ZM178.763 116.05L174.683 128.37H181.743C181.265 126.515 180.751 124.328 180.242 122.162L180.239 122.146L180.238 122.144L180.234 122.127L180.232 122.12L180.229 122.107C179.722 119.949 179.221 117.814 178.763 116.05ZM190.653 138.15C190.903 139.05 191.263 139.95 191.723 140.78C192.203 141.66 192.973 141.88 193.943 141.97V143.1L192.633 143.1C191.827 143.101 191.021 143.102 190.215 143.102H190.201H190.2H190.199H190.198H190.197H190.196H190.194H190.193C187.717 143.104 185.243 143.107 182.763 143.1V141.97C184.173 141.76 184.713 141.41 184.653 140.03C184.633 139.43 184.523 138.82 184.373 138.23C184.018 136.838 183.652 135.449 183.287 134.059C182.922 132.674 182.558 131.288 182.203 129.9H174.183L171.423 138.08C170.553 140.64 170.693 141.86 172.343 141.97V143.1H165.743V141.97H165.833C167.543 141.96 168.253 141.11 168.703 139.81C169.813 136.6 170.893 133.38 171.963 130.16C173.298 126.138 174.678 121.841 176.06 117.538L176.072 117.501C177.503 113.044 178.936 108.581 180.323 104.41H181.523C183.041 109.855 184.56 115.551 186.08 121.248L186.087 121.276L186.089 121.28C187.611 126.988 189.133 132.695 190.653 138.15ZM114.183 138.57C114.823 137.49 115.323 136.21 115.673 134.72L115.683 134.71C116.033 133.23 116.213 131.62 116.213 129.89C116.213 127.74 116.003 125.95 115.573 124.5C115.143 123.05 114.633 121.86 113.923 121.03C112.143 118.95 110.663 118.68 109.203 118.65C109.099 118.65 108.995 118.653 108.901 118.656C108.823 118.658 108.752 118.66 108.693 118.66C108.023 118.72 107.773 119.02 107.773 120.19C107.773 120.19 107.733 137.51 107.733 139.69C107.733 142.005 108.597 142.003 109.333 142L109.403 142C110.043 141.92 110.913 141.74 111.773 141.25C112.713 140.72 113.543 139.65 114.183 138.57ZM117.033 120.89C117.973 121.9 118.703 123.12 119.223 124.56V124.57C119.743 126 120.003 127.63 120.003 129.44C120.003 131.59 119.713 133.51 119.133 135.2C118.553 136.89 117.763 138.32 116.763 139.48C115.763 140.64 114.313 141.53 113.013 142.13C111.713 142.73 109.303 143.08 108.383 143.08H107.743H106.813H105.783H104.753H103.823H102.153V142.32C102.903 142.32 103.823 142.08 103.823 139.69V133.14V121.11C103.823 118.71 102.903 118.48 102.153 118.48V117.72H103.823H106.813H107.743H109.193H109.353C110.803 117.76 112.443 118.08 113.673 118.58C114.973 119.11 116.093 119.88 117.033 120.89ZM134.973 136.49L134.959 136.52H134.943L134.973 136.49ZM134.842 136.773C134.818 136.828 134.793 136.884 134.768 136.939L134.762 136.952C134.717 137.054 134.671 137.157 134.623 137.26L134.556 137.4L134.505 137.504L134.434 137.653L134.433 137.654C134.178 138.185 133.922 138.719 133.633 139.24C132.203 141.88 130.533 142.18 127.543 142.12C126.913 142.12 126.413 142.09 126.033 141.43C125.973 141.29 125.913 141.14 125.873 140.96C125.803 140.57 125.763 140.17 125.763 139.77V137.4V137.38V133.43V129.81H127.753H127.783C128.843 129.81 129.473 130.01 129.933 130.84C130.072 131.091 130.189 131.395 130.293 131.664C130.346 131.802 130.396 131.931 130.443 132.04H131.053V126.6H130.443C130.396 126.708 130.346 126.838 130.293 126.976C130.189 127.245 130.072 127.549 129.933 127.8C129.473 128.63 128.843 128.83 127.783 128.83H125.763V120.7C125.763 119.5 126.363 118.73 127.323 118.71H129.283C130.943 118.71 132.203 119.41 132.883 120.89C133.034 121.215 133.175 121.543 133.315 121.872L133.318 121.88C133.484 122.268 133.65 122.657 133.833 123.04H134.453C134.273 121.93 133.543 117.75 133.543 117.75H120.193V118.51C120.873 118.51 121.683 118.71 121.843 120.49L121.847 120.612L121.848 120.632C121.856 120.884 121.863 121.106 121.863 121.25V128.67V128.77V139.73C121.863 142.12 120.943 142.36 120.183 142.36V143.12H125.903H133.963C134.373 141.52 135.383 137.55 135.643 136.52H134.959C134.919 136.603 134.881 136.688 134.842 136.773ZM91.5355 133.668L91.5905 133.545L91.6262 133.466C91.6443 133.426 91.6624 133.386 91.6807 133.346C91.6973 133.31 91.714 133.274 91.7308 133.238L91.7534 133.19L91.7734 133.2H92.8234C92.6035 134.074 92.0214 136.349 91.4459 138.598L91.3536 138.959C90.9406 140.574 90.541 142.135 90.2933 143.11H78.1834H76.5934H69.5934V141.97C70.7334 141.97 72.1134 141.62 72.1134 138.02V121.57V121.42V110.27C72.1134 110.01 72.1034 109.6 72.0834 109.13C71.8434 106.45 70.6234 106.15 69.6034 106.15V105.02H89.6434C89.6434 105.02 90.7334 111.3 91.0034 112.96H90.0734C89.8002 112.381 89.5477 111.792 89.295 111.203L89.2943 111.201C89.085 110.713 88.8754 110.225 88.6534 109.74C87.6434 107.53 85.7434 106.48 83.2534 106.47C83.2534 106.47 80.8234 106.47 80.3134 106.48C78.8734 106.51 77.9634 107.67 77.9634 109.47C77.9634 111.495 77.9609 113.527 77.9584 115.56C77.9558 117.592 77.9534 119.625 77.9534 121.65V121.66V121.67H80.9934C82.5934 121.67 83.5234 121.38 84.2234 120.13C84.4258 119.758 84.5984 119.309 84.7522 118.909L84.7529 118.907C84.8345 118.695 84.9108 118.496 84.9834 118.33H85.8934V126.5H84.9834C84.9587 126.439 84.9334 126.375 84.9072 126.307L84.8689 126.208L84.8176 126.073L84.8118 126.057L84.8088 126.049L84.8074 126.045C84.6445 125.614 84.455 125.112 84.2234 124.7C83.5234 123.45 82.5934 123.16 80.9934 123.16H80.9434H77.9534H77.9334V134.53V134.55V138.11C77.9434 138.7 77.9934 139.3 78.1034 139.89C78.1633 140.16 78.2434 140.39 78.3434 140.6C78.9034 141.6 79.6534 141.62 80.6034 141.64C85.0934 141.72 87.5934 141.28 89.7434 137.31C90.1678 136.533 90.5538 135.731 90.9373 134.934L90.9384 134.931L91.1141 134.566L91.2234 134.34C91.3337 134.12 91.4338 133.896 91.5337 133.672L91.5341 133.671L91.5344 133.671L91.5348 133.67L91.5352 133.669L91.5355 133.668ZM47.8335 105.01H66.9835C67.0862 105.601 67.1973 106.24 67.311 106.893L67.3132 106.906C67.7085 109.175 68.1342 111.621 68.3435 112.9H67.4135C67.1399 112.32 66.8873 111.731 66.6344 111.141C66.425 110.653 66.2155 110.165 65.9935 109.68C64.9835 107.47 63.0835 106.43 60.5935 106.41C60.5935 106.41 59.1835 106.41 58.6735 106.42C57.2335 106.45 56.1935 107.61 56.1935 109.41C56.1935 111.34 56.1912 113.289 56.1888 115.239V115.241V115.244L56.1885 115.525L56.1881 115.806C56.1858 117.758 56.1835 119.708 56.1835 121.64V121.65V121.66H59.1835H59.2235C60.8235 121.66 61.7535 121.37 62.4535 120.12C62.6851 119.708 62.8746 119.206 63.0375 118.775L63.0389 118.771L63.0419 118.763L63.0477 118.747C63.1063 118.593 63.1614 118.448 63.2135 118.32H64.1235V126.49H63.2135C63.1586 126.356 63.1007 126.202 63.0389 126.039C62.8757 125.607 62.6857 125.104 62.4535 124.69C61.7535 123.44 60.8235 123.15 59.2235 123.15H59.1835H56.1935H56.1735V128.59V134.52V134.54C56.1835 135.73 56.1835 136.91 56.1835 138.1C56.1935 138.69 56.2435 139.29 56.3535 139.88C56.7634 141.73 58.0535 141.95 58.9435 141.95V143.09H54.8235H47.8235V141.95C48.9635 141.95 50.3435 141.6 50.3435 138V123.91V121.4V110.21C50.3435 109.96 50.3335 109.54 50.3135 109.07C50.0735 106.4 48.8535 106.11 47.8335 106.11V105.01ZM27.7634 128.37L31.8434 116.05C32.3033 117.824 32.8081 119.974 33.3179 122.144C33.8281 124.316 34.3433 126.509 34.8234 128.37H27.7634ZM44.8035 140.78C44.3434 139.95 43.9834 139.05 43.7334 138.15C42.2134 132.695 40.6909 126.987 39.1685 121.28C37.6459 115.573 36.1234 109.865 34.6035 104.41H33.4034C32.0129 108.592 30.5756 113.067 29.1406 117.535L29.1396 117.538L29.1367 117.547L29.134 117.555C27.7538 121.853 26.3759 126.143 25.0434 130.16C23.9735 133.38 22.8934 136.6 21.7834 139.81C21.3334 141.11 20.6234 141.96 18.9135 141.97H18.8234V143.1H25.4234V141.97C23.7734 141.86 23.6334 140.64 24.5034 138.08L27.2634 129.9H35.2834C35.6387 131.291 36.0039 132.679 36.3692 134.068C36.7339 135.454 37.0987 136.841 37.4534 138.23C37.6035 138.82 37.7134 139.43 37.7334 140.03C37.7935 141.41 37.2534 141.76 35.8434 141.97V143.1C38.3221 143.107 40.7964 143.104 43.2722 143.102H43.2733H43.2744H43.2755H43.2766H43.2777H43.2788H43.2799H43.281H43.2949C44.5371 143.101 45.7797 143.1 47.0234 143.1V141.97C46.0535 141.88 45.2834 141.66 44.8035 140.78ZM25.9934 97.45C26.9234 98.35 27.6434 99.44 28.1434 100.71L28.1534 100.7C28.6434 101.98 28.8534 103.39 28.7634 104.94C28.6934 106.21 28.4434 107.36 28.0034 108.37C27.5634 109.39 27.0234 110.24 26.3734 110.94C25.7234 111.64 24.9934 112.16 24.1834 112.52C24.0963 112.56 24.0028 112.593 23.913 112.625L23.8434 112.65C23.3534 112.85 22.8334 112.97 22.2834 112.97C19.9934 112.97 18.2534 110.96 18.3934 108.48C18.4134 108.09 18.4834 107.71 18.5934 107.35C18.7934 107.41 19.0034 107.45 19.2134 107.48C19.4734 107.52 19.7234 107.52 19.9734 107.52H20.0234H20.1234H20.3334C20.9534 107.47 21.5534 107.3 22.1034 107.01C22.1334 106.99 22.1734 106.97 22.2134 106.95L22.2246 106.943L22.2374 106.935L22.2623 106.921C22.2713 106.915 22.2803 106.91 22.289 106.905C22.2975 106.9 22.3058 106.895 22.3134 106.89C23.7034 106.09 24.7034 104.61 24.8734 102.81C24.8774 102.782 24.8798 102.754 24.8812 102.726C24.8826 102.701 24.8831 102.675 24.8833 102.65L24.8834 102.6V102.58V102.55V102.02V101.93C24.8734 101.77 24.8534 101.61 24.8334 101.45L24.8284 101.43L24.8282 101.429L24.8233 101.411L24.821 101.401L24.8184 101.388L24.8165 101.378L24.8153 101.37C24.8141 101.36 24.8134 101.35 24.8134 101.34L24.8065 101.301L24.8063 101.299C24.7785 101.141 24.7495 100.976 24.7034 100.82V100.81C24.1634 98.78 22.5734 97.16 20.4834 96.75C20.4434 96.74 20.4134 96.73 20.3734 96.73C8.00342 94.05 -0.646606 129.27 16.6934 141.97V143.08C16.6387 143.055 16.5847 143.031 16.5308 143.007C16.4621 142.976 16.3937 142.946 16.3249 142.915L16.3209 142.913C15.8144 142.689 15.281 142.452 14.3734 141.97C-1.14661 133.17 -4.80658 110.94 6.88342 99.15C8.37341 97.76 10.0334 96.71 11.8634 95.98C14.0634 95.11 15.7734 94.67 18.1734 94.67C19.7834 94.67 21.2534 94.91 22.5934 95.39C23.9234 95.87 25.0634 96.56 25.9934 97.45ZM156.443 16.34C153.224 13.5109 147.957 11.4513 142.958 11.45C134.961 11.4519 129.903 16.1613 130.323 22.68C130.723 29.03 135.603 31.46 138.063 31.46C141.433 31.46 143.483 28.28 142.433 25.25C138.993 26.39 135.173 23.81 134.933 20.11C134.833 18.43 135.613 14.39 141.273 13.97C144.933 13.69 147.793 15.06 150.073 17.01C155.853 22.25 161.163 35.69 157.333 52.56H158.093C166.423 37.53 164.773 23.69 156.443 16.34ZM86.3134 53.82L86.306 53.8167L86.6233 53.42C85.7548 52.2995 83.5961 49.5872 82.3556 48.0287L81.8634 47.41C80.8134 46.09 79.1834 45.89 78.2034 47.13C77.2234 48.37 77.8534 49.93 79.3434 50.62C80.8309 51.3089 84.8103 53.144 86.306 53.8167L86.3033 53.82H86.3134ZM171.123 78.35C174.163 78.35 177.633 75.8 177.633 71.35H177.623C177.623 64.65 171.263 61.4 166.543 61.4C162.793 61.4 159.143 62.79 155.523 66.46C153.975 68.0292 152.645 69.8543 151.4 71.5637C149.701 73.8956 148.159 76.0121 146.433 76.97V77.5C153.013 75.65 157.283 70.91 160.263 67.01C162.413 64.19 164.693 63.12 166.723 63.12C170.543 63.11 173.273 65.83 173.273 69.42C173.273 73.01 170.433 75.86 167.433 75.39C167.403 76.13 168.303 78.35 171.123 78.35ZM167.943 53.82L167.951 53.8167L167.953 53.82H167.943ZM167.951 53.8167C169.447 53.144 173.426 51.3089 174.913 50.62C176.403 49.93 177.033 48.37 176.053 47.13C175.073 45.89 173.443 46.09 172.393 47.41C171.373 48.69 168.633 52.13 167.633 53.42L167.951 53.8167Z" clip-rule="evenodd" fill-rule="evenodd"></path></svg>