<svg xmlns="http://www.w3.org/2000/svg" fill="none" viewBox="0 0 234 143"><path fill="white" d="M109.06 109.76C111.13 107.08 114.72 101.88 114.16 95.47C115.63 95.89 117.25 97.6 117.51 98.97C118.41 103.77 112.83 107.35 109.07 109.76H109.06Z"></path><path fill="white" d="M198.193 93.7829L201.75 89.3926C201.847 89.2725 201.829 89.0962 201.709 88.9988L197.318 85.4424C197.198 85.3451 197.022 85.3636 196.924 85.4837L193.368 89.874C193.271 89.9941 193.289 90.1704 193.409 90.2678L197.8 93.8242C197.92 93.9216 198.096 93.9031 198.193 93.7829Z"></path><path fill="white" d="M207.552 91.2496L209.755 88.53C209.852 88.4098 209.834 88.2335 209.714 88.1362L206.994 85.9331C206.874 85.8357 206.698 85.8542 206.6 85.9744L204.397 88.694C204.3 88.8142 204.318 88.9905 204.438 89.0878L207.158 91.2909C207.278 91.3883 207.455 91.3698 207.552 91.2496Z"></path><path fill="white" d="M133.645 94.8781L131.205 93.6549C131.067 93.5856 130.898 93.6415 130.829 93.7798L129.606 96.2204C129.537 96.3586 129.592 96.5269 129.731 96.5962L132.171 97.8194C132.31 97.8887 132.478 97.8328 132.547 97.6945L133.77 95.2539C133.84 95.1157 133.784 94.9474 133.645 94.8781Z"></path><path fill="white" d="M125.215 101.747L127.237 97.7382C127.307 97.6001 127.251 97.4317 127.113 97.3621L123.104 95.3404C122.966 95.2708 122.798 95.3263 122.728 95.4644L120.706 99.4735C120.637 99.6116 120.692 99.78 120.83 99.8496L124.839 101.871C124.977 101.941 125.146 101.885 125.215 101.747Z"></path><path fill="white" d="M25.389 114.164L21.9844 112.69C21.8425 112.628 21.6776 112.693 21.6162 112.835L20.1422 116.24C20.0807 116.382 20.146 116.547 20.2879 116.608L23.6925 118.082C23.8344 118.144 23.9992 118.078 24.0607 117.936L25.5347 114.532C25.5961 114.39 25.5309 114.225 25.389 114.164Z"></path><path fill="white" d="M45.02 112.29C39.02 111.3 32.88 111.22 30.55 113.92C28.98 115.73 28.72 119.87 28.84 120.64C28.84 120.67 28.85 120.68 28.85 120.68C28.85 120.68 28.96 120.66 29.07 120.59C36.55 115.74 46.41 114.14 52.19 113.87C50.02 113.28 47.54 112.71 45.03 112.29H45.02Z"></path><path fill="white" d="M17.88 101.73C17.75 102.43 17.83 105.7 19.01 107.19C21.51 110.35 30.26 109.38 36.26 108.05C31.58 107.6 23.8 105.93 18.02 101.79C17.97 101.75 17.92 101.74 17.89 101.73H17.88Z"></path><path fill="white" d="M96.17 136.12C98.52 133.51 99.08 131.82 99.14 130.85C99.42 125.69 90.81 120.19 84.4 118.87C89.33 121.88 94.57 127.68 96.18 136.11L96.17 136.12Z"></path><path fill="white" d="M32.96 84.35C27.46 90.12 10.87 97.81 10.93 109.9C9.29998 108.53 6.00998 103.83 8.27998 99.32C9.10998 97.67 10.89 95.71 13.64 94.35C10.52 94.26 7.31998 93.33 5.04998 91.67C0.99998 88.69 -0.30002 85.04 0.0599804 81.02C0.51998 75.83 4.85998 70.86 10.56 71.15C15.57 71.4 18.27 75.14 18.44 78.24C18.56 80.43 17.79 83.1 15.15 84.45C12.67 85.72 10.61 85.23 9.04998 83.73C7.73998 82.47 7.10998 79.74 5.33998 80.59C5.99998 79.59 7.59998 79.48 8.72998 80.17C10.09 81 12.44 81.13 12.85 78.92C13.19 77.11 11.41 75.66 9.58998 75.32C7.52998 74.94 3.17998 75.59 2.47998 80.35C2.00998 83.48 3.76998 85.84 5.58998 87.06C13.23 92.18 26.36 88.47 32.96 84.34V84.35Z"></path><path fill="white" d="M18.12 65.07C18.12 65.07 18.1 65.12 18.09 65.18C17.89 66.09 17.61 69.84 18.96 71.54C22.2 75.64 34.44 75.09 41.14 73.6C37.02 73.07 26.99 71.23 18.41 65.23C18.24 65.11 18.15 65.08 18.12 65.08V65.07Z"></path><path fill="white" d="M31.15 77.71C28.03 78.05 25.18 78.86 24.31 80.53C23.64 81.81 24.04 84.3 24.21 84.73C24.21 84.75 24.22 84.75 24.22 84.75C24.22 84.75 24.27 84.72 24.32 84.67C28.02 80.79 33.52 78.5 36.86 77.54C35.12 77.47 33.08 77.5 31.15 77.7V77.71Z"></path><path fill="white" d="M2.12585 94.2284L0.347428 97.7218C0.277271 97.8596 0.332114 98.0282 0.469923 98.0983L3.96329 99.8767C4.1011 99.9469 4.26969 99.8921 4.33985 99.7542L6.11827 96.2609C6.18843 96.1231 6.13358 95.9545 5.99577 95.8843L2.50241 94.1059C2.3646 94.0357 2.19601 94.0906 2.12585 94.2284Z"></path><path fill="white" d="M44.6133 74.8339L40.4882 77.1687C40.3537 77.2449 40.3063 77.4157 40.3825 77.5503L42.7173 81.6754C42.7935 81.8099 42.9643 81.8573 43.0989 81.7811L47.224 79.4463C47.3585 79.3701 47.4059 79.1993 47.3297 79.0647L44.9949 74.9396C44.9187 74.805 44.7479 74.7577 44.6133 74.8339Z"></path><path fill="white" d="M51.6812 78.4773L49.3576 79.7925C49.223 79.8687 49.1756 80.0395 49.2518 80.1741L50.567 82.4977C50.6432 82.6323 50.814 82.6796 50.9486 82.6035L53.2722 81.2883C53.4068 81.2121 53.4541 81.0413 53.378 80.9067L52.0628 78.5831C51.9866 78.4485 51.8158 78.4011 51.6812 78.4773Z"></path><path fill="white" d="M189.73 90.14C135.43 94.51 124.96 117.06 103.86 120.11C99.42 120.75 94.78 119.2 91.79 115.99C89.27 113.29 87.87 108.87 88.77 104.98C89.93 99.99 93.86 95.64 100.33 95.95C105.63 96.2 107.69 100.62 107.5 103.75C107.37 105.96 106.27 108.55 103.47 109.6C100.84 110.59 98.82 109.85 97.44 108.17C96.28 106.76 95.96 103.95 94.09 104.58C94.87 103.66 96.49 103.74 97.54 104.56C98.81 105.55 101.15 105.96 101.82 103.78C102.37 102 100.76 100.34 98.97 99.79C96.95 99.17 92.51 99.31 91.25 104C90.42 107.09 92.62 115.18 102.28 114.94C117.38 114.57 141.38 87.93 189.73 90.14Z"></path><path fill="white" d="M57.7435 129.739L53.4075 130.283C53.254 130.302 53.1452 130.442 53.1645 130.596L53.7084 134.932C53.7277 135.085 53.8677 135.194 54.0211 135.175L58.3571 134.631C58.5105 134.612 58.6193 134.472 58.6001 134.318L58.0562 129.982C58.0369 129.829 57.8969 129.72 57.7435 129.739Z"></path><path fill="white" d="M79.54 121.99C77.13 122.16 74.32 123.39 73.21 126.45C72.17 129.33 73 131.52 74.85 133.01C76.41 134.26 79.47 134.57 78.8 136.62C79.8 135.75 79.69 134 78.78 132.86C77.68 131.49 77.21 128.94 79.57 128.18C81.5 127.56 83.33 129.29 83.96 131.24C84.66 133.44 84.61 138.49 79.47 139.72C72.12 141.48 67.24 135.86 67.72 129.77C68.6 118.37 84.63 109.59 87.44 93.01C77.38 115.18 52.3 124.59 35.62 120.71C38.29 125.31 49.26 132.06 63.63 121.3C60.78 128.53 62.47 135.59 66.01 138.82C69.57 142.07 74.41 143.15 78.75 142.21C84.02 141.06 89.05 136.31 88.15 129.72C87.37 123.99 82.97 121.75 79.55 122L79.54 121.99Z"></path><path fill="white" d="M108.119 30.2257L102.513 27.7206C102.372 27.6575 102.206 27.7208 102.143 27.8619L99.6382 33.4676C99.5751 33.6088 99.6384 33.7744 99.7796 33.8375L105.385 36.3427C105.526 36.4058 105.692 36.3425 105.755 36.2013L108.26 30.5956C108.323 30.4544 108.26 30.2888 108.119 30.2257Z"></path><path fill="white" d="M125.662 28.9724L123.17 27.8585C123.028 27.7954 122.863 27.8587 122.8 27.9999L121.686 30.4923C121.623 30.6335 121.686 30.7991 121.827 30.8622L124.32 31.9761C124.461 32.0391 124.626 31.9758 124.689 31.8347L125.803 29.3422C125.866 29.2011 125.803 29.0355 125.662 28.9724Z"></path><path fill="white" d="M97.8989 37.4114L93.8087 35.5835C93.6676 35.5205 93.502 35.5838 93.4389 35.7249L91.611 39.8151C91.5479 39.9563 91.6112 40.1219 91.7524 40.185L95.8425 42.0128C95.9837 42.0759 96.1493 42.0126 96.2124 41.8715L98.0403 37.7813C98.1033 37.6401 98.04 37.4745 97.8989 37.4114Z"></path><path fill="white" d="M116.382 33.0682L118.21 28.978C118.273 28.8369 118.21 28.6713 118.069 28.6082L113.979 26.7803C113.837 26.7172 113.672 26.7805 113.609 26.9217L111.781 31.0118C111.718 31.153 111.781 31.3186 111.922 31.3817L116.012 33.2096C116.154 33.2727 116.319 33.2094 116.382 33.0682Z"></path><path fill="white" d="M14.7377 40.4506L8.27332 45.0091C8.14694 45.0982 8.11674 45.2729 8.20586 45.3993L12.7643 51.8637C12.8534 51.99 13.0281 52.0203 13.1545 51.9311L19.6189 47.3727C19.7453 47.2836 19.7755 47.1089 19.6864 46.9825L15.1279 40.5181C15.0388 40.3917 14.8641 40.3615 14.7377 40.4506Z"></path><path fill="white" d="M24.4334 23.3889L21.4995 25.4577C21.3731 25.5469 21.3429 25.7215 21.4321 25.8479L23.5009 28.7818C23.59 28.9082 23.7647 28.9384 23.8911 28.8493L26.825 26.7804C26.9514 26.6913 26.9816 26.5166 26.8925 26.3902L24.8236 23.4563C24.7345 23.3299 24.5598 23.2997 24.4334 23.3889Z"></path><path fill="white" d="M56.88 4.14C56.88 4.14 56.85 4.21 56.85 4.26C56.55 10.57 53.45 16.92 51.18 20.46C55.42 16.99 60.9 11.43 60.07 7.94C59.67 6.28 57.4 4.41 56.88 4.14Z"></path><path fill="white" d="M15.6896 54.2226L10.9495 57.5651C10.8232 57.6542 10.7929 57.8289 10.8821 57.9552L14.2245 62.6953C14.3137 62.8216 14.4884 62.8519 14.6147 62.7627L19.3548 59.4203C19.4811 59.3311 19.5113 59.1564 19.4222 59.0301L16.0797 54.29C15.9906 54.1637 15.8159 54.1335 15.6896 54.2226Z"></path><path fill="white" d="M23.2671 35.0972L19.9246 30.3572C19.8355 30.2308 19.6608 30.2006 19.5344 30.2897L14.7944 33.6322C14.668 33.7213 14.6378 33.896 14.7269 34.0224L18.0694 38.7624C18.1585 38.8888 18.3332 38.919 18.4596 38.8299L23.1996 35.4874C23.326 35.3983 23.3562 35.2236 23.2671 35.0972Z"></path><path fill="white" d="M89.58 45.64C86.1 47.7 81.62 51.17 82.13 53.97C82.36 55.23 83.98 57 84.48 57.39C84.96 52.54 87.63 48.08 89.57 45.64H89.58Z"></path><path fill="white" d="M157.69 20.42C157.69 20.42 157.69 20.45 157.69 20.47C158.28 27.31 155.96 33.96 153.28 37.9C157.68 34.97 163.58 27.88 162.01 23.8C161.76 23.16 160.87 21.86 157.69 20.42Z"></path><path fill="white" d="M167.58 28C165.33 32.54 161.17 35.92 158.32 37.69C162.54 36.9 168.09 35.12 168.6 32.2C168.82 30.92 167.95 28.68 167.57 28H167.58Z"></path><path fill="white" d="M45.44 1.4C45.44 1.41 45.42 1.49 45.44 1.6C47.76 9.69 46.43 18.24 44.07 23.42C48.65 19.14 54.32 9 51.45 4.42C50.91 3.55 49.44 2.33 45.55 1.41H45.51C45.51 1.41 45.44 1.39 45.43 1.39L45.44 1.4Z"></path><path fill="white" d="M55.66 21.47C60.36 21.27 68.29 21.83 74.6 25.13C74.66 25.16 74.71 25.17 74.74 25.17C74.77 24.46 74.24 21.23 72.86 19.92C69.95 17.13 61.42 19.31 55.66 21.47Z"></path><path fill="white" d="M71.09 49.67C72.8 51.44 74.03 51.91 74.76 51.98C78.67 52.37 83.93 46.42 85.71 41.89C82.81 45.3 77.74 48.83 71.09 49.67Z"></path><path fill="white" d="M28.11 8.95C29.5 11.92 27.67 13.7 26.11 14.16C24.82 14.54 23.4 13.99 22.48 12.72C21.56 11.45 21.26 9.45 21.91 7.7C22.64 5.73 24.31 4.39 26.61 3.91C28.44 3.53 30.41 4 32.17 5.21C34.58 6.88 36.25 9.69 36.76 12.93C37.55 17.94 35.29 21.81 32.16 27.16C30.17 30.58 26.79 36 24.74 41.13C21.81 48.49 20.38 59.94 28.87 66.29C22.99 59.18 25.3 47.66 28.66 40.94C31.06 36.14 33.68 32.32 36 28.95C39.85 23.35 42.89 18.94 42.74 13.11C42.63 8.79 40.49 5.05 36.86 2.86C33.21 0.66 28.74 0.38 25.21 2.13C20.95 4.25 17.24 9.05 19.21 14.61C21.03 19.75 25.09 20.63 28.02 19.82C30.08 19.25 32.16 17.68 32.74 14.85C33.2 12.6 31.86 9.07 28.11 8.94V8.95Z"></path><path fill="white" d="M143.62 23.91C141.9 26.45 139.59 25.83 138.47 24.81C137.54 23.96 137.3 22.55 137.89 21.2C138.48 19.85 139.93 18.65 141.65 18.33C143.58 17.97 145.46 18.67 146.95 20.29C148.13 21.58 148.71 23.39 148.57 25.38C148.39 28.11 146.93 30.81 144.57 32.77C140.92 35.81 136.72 35.91 130.92 35.91C114.17 35.9 101.74 41.51 98.74 45.43C104.35 41.69 114.56 38.62 131.32 39.87C137.66 40.34 142.67 40.59 147.29 37.68C150.71 35.52 152.69 32 152.7 28.03C152.72 24.04 150.8 20.32 147.69 18.32C143.94 15.91 138.3 15.24 134.78 19.49C131.52 23.42 132.77 27.11 134.82 29.07C136.27 30.45 138.53 31.37 141.08 30.47C143.11 29.76 145.3 26.99 143.6 23.92L143.62 23.91Z"></path><path fill="white" d="M83.48 38.34C90.25 35.19 102.14 19.47 114.03 23.69C113.13 21.71 109.37 16.93 104.37 18.15C102.07 18.71 100.04 20.09 98.36 21.86C98.63 20.96 98.82 20.05 98.91 19.16C99.39 14.72 98.25 11.08 95.61 8.63C92.97 6.19 89.1 5.22 84.99 5.99C80.22 6.88 75.48 10.7 76.09 16.03C76.66 20.99 80.47 22.57 83.55 22.41C85.85 22.29 88.02 21.18 89.07 19.58C90.22 17.83 90.03 13.35 85.82 12.75C85.97 15.37 84.18 16.5 82.94 16.73C81.59 16.98 80.43 16.32 79.76 14.98C79.13 13.73 79.29 12.01 80.17 10.61C81.31 8.79 83.41 7.76 85.95 7.78C87.99 7.8 89.85 8.64 91.2 10.14C92.92 12.05 93.7 14.88 93.39 18.1C92.9 23.14 89.92 32.28 83.46 38.34H83.48Z"></path><path fill="white" d="M102.282 15.6505L106.201 14.7997C106.352 14.7669 106.448 14.6178 106.415 14.4667L105.564 10.548C105.531 10.3969 105.382 10.301 105.231 10.3338L101.312 11.1846C101.161 11.2174 101.065 11.3665 101.098 11.5176L101.949 15.4363C101.982 15.5874 102.131 15.6834 102.282 15.6505Z"></path><path fill="white" d="M75.6726 2.64689L72.1829 2.60182C72.0283 2.59982 71.9013 2.72355 71.8993 2.87818L71.8543 6.36789C71.8523 6.52251 71.976 6.64948 72.1306 6.65148L75.6203 6.69655C75.775 6.69855 75.9019 6.57482 75.9039 6.42019L75.949 2.93048C75.951 2.77586 75.8273 2.64889 75.6726 2.64689Z"></path><path fill="white" d="M70.4063 7.83814L64.0668 7.75626C63.9122 7.75426 63.7852 7.87799 63.7832 8.03262L63.7014 14.3721C63.6994 14.5267 63.8231 14.6537 63.9777 14.6557L70.3172 14.7376C70.4718 14.7396 70.5988 14.6158 70.6008 14.4612L70.6827 8.12173C70.6847 7.9671 70.5609 7.84014 70.4063 7.83814Z"></path><path fill="white" d="M185.18 21.05C184.81 20.76 184.26 20.82 183.96 21.18L177.33 29.25C177.03 29.62 177.09 30.16 177.46 30.45L185.65 36.93C186.02 37.22 186.57 37.16 186.87 36.8L193.5 28.73C193.8 28.36 193.74 27.82 193.37 27.53L185.18 21.05Z"></path><path fill="white" d="M232.94 68.26C230.69 60.43 227.41 48.62 224.33 41.95C223.37 39.87 221.56 36.79 217.96 37.17C213.33 37.67 206.77 41.04 202.2 45.21L202.52 48.16C212.44 42.85 213.62 46.06 214.43 48.91C205.11 56.84 197.89 66.42 200.96 74.38C204.21 82.81 214.72 77.85 221.63 73.02C222.24 75.06 222.66 76.48 222.76 76.8C226.89 74.99 234.05 72.05 232.96 68.24L232.94 68.26ZM210.41 67.96C209.04 64.56 211.23 58.45 215.68 53.19C216.88 57.2 218.86 63.82 220.42 69.05C216.32 70.91 211.9 71.62 210.41 67.96Z"></path><path fill="white" d="M113.22 53.85C112.26 51.77 110.45 48.69 106.85 49.07C102.22 49.57 95.66 52.94 91.09 57.11L91.41 60.06C101.33 54.75 102.51 57.96 103.32 60.81C94 68.74 86.78 78.32 89.85 86.28C93.1 94.71 103.61 89.75 110.52 84.92C111.13 86.96 111.55 88.38 111.65 88.7C115.78 86.89 122.94 83.95 121.85 80.14C119.6 72.31 116.32 60.5 113.24 53.83L113.22 53.85ZM99.31 79.85C97.94 76.45 100.13 70.34 104.58 65.08C105.78 69.09 107.76 75.71 109.32 80.94C105.22 82.8 100.8 83.51 99.31 79.85Z"></path><path fill="white" d="M182.36 41.08L180.17 41.32L178.8 44.53C181.79 44.21 183.19 45.6 183.8 49.46C185.31 58.98 186.57 71.7 187.02 80.66L188.87 80.46C191.49 73.83 194.24 68.55 197.02 62.67C196.42 58.76 195.74 54.91 194.96 51.39C193.52 44.89 189.62 40.32 182.37 41.09L182.36 41.08Z"></path><path fill="white" d="M166.74 42.74C162.71 42.98 158.2 48.45 155.63 58.52C152.11 46.08 147.78 44.86 145.88 44.97C141.76 45.21 138.06 49.66 135.25 59.4C133.17 48.47 128.71 46.82 122.4 47.5L118.77 47.88L117.31 51.11C120.34 50.8 123.14 52.1 123.92 56.75C125.51 66.22 126.85 77.43 127.37 87.04C131.42 85.55 137.11 83.7 136.91 79.73C135.98 61.95 139.98 56 142.28 55.75C144.8 55.48 146.22 63.59 148.23 84.8C152.28 83.31 157.97 81.46 157.77 77.49C156.84 59.71 160.84 53.76 163.14 53.51C165.66 53.24 167.08 61.35 169.09 82.56L170.86 82.37C173.04 77.11 176.19 72.28 178.95 67.98C175.3 44.54 169.12 42.6 166.75 42.74H166.74Z"></path><path fill="white" d="M59.1 55.92C50.21 53.23 41.18 51.94 40.05 48.82C38.69 45.11 42.92 39.57 48.99 38.09C54.07 36.85 65.06 41.5 70.5 43.39L79.39 33.98C70.69 29.85 58.4 26.44 53.93 27.24C42.42 29.29 30.21 48.33 31.76 56.79C32.75 62.21 38.18 65.21 53.65 69.62C71.49 74.71 74.51 79.49 75.06 82.54C75.8 86.65 73.26 93.65 67.8 94.64C58.18 96.38 46.32 91.01 37.72 87.33L26.21 97.9C27.69 99.01 49.47 108.24 59.56 107.07C78.74 104.86 88.86 81.43 83.75 70C80.18 62 69.25 59 59.11 55.93L59.1 55.92Z"></path></svg>